# Blender v2.78 (sub 0) OBJ File: 'ball.blend'
# www.blender.org
mtllib ball2.mtl
o Icosphere
v 0.000001 -0.687622 -0.000000
v 0.497563 -0.307514 0.361498
v -0.190051 -0.307514 0.584917
v -0.615023 -0.307514 -0.000000
v -0.190051 -0.307514 -0.584917
v 0.497563 -0.307514 -0.361498
v 0.190051 0.307514 0.584917
v -0.497563 0.307514 0.361498
v -0.497563 0.307514 -0.361498
v 0.190051 0.307514 -0.584917
v 0.615023 0.307514 0.000000
v -0.000001 0.687622 -0.000000
v -0.108327 -0.567219 0.333398
v 0.283607 -0.567219 0.206051
v 0.175279 -0.350561 0.539448
v 0.567214 -0.350561 0.000000
v 0.283607 -0.567219 -0.206051
v -0.350557 -0.567219 -0.000000
v -0.458885 -0.350561 0.333398
v -0.108327 -0.567219 -0.333398
v -0.458885 -0.350561 -0.333398
v 0.175279 -0.350561 -0.539448
v 0.634164 0.000000 0.206051
v 0.634164 -0.000000 -0.206051
v -0.000000 -0.000000 0.666795
v 0.391934 -0.000000 0.539448
v -0.634164 -0.000000 0.206051
v -0.391934 -0.000000 0.539448
v -0.391934 0.000000 -0.539448
v -0.634164 -0.000000 -0.206051
v 0.391934 0.000000 -0.539448
v 0.000000 -0.000000 -0.666795
v 0.458885 0.350561 0.333398
v -0.175279 0.350561 0.539448
v -0.567214 0.350561 -0.000000
v -0.175279 0.350561 -0.539448
v 0.458885 0.350561 -0.333398
v 0.108327 0.567219 0.333398
v 0.350557 0.567219 0.000000
v -0.283607 0.567219 0.206051
v -0.283607 0.567219 -0.206051
v 0.108327 0.567219 -0.333398
v -0.050582 -0.655777 0.155678
v 0.415297 -0.439683 0.301728
v -0.026200 -0.338516 0.584421
v 0.547725 -0.338516 0.205514
v 0.415297 -0.439683 -0.301728
v -0.163690 -0.655777 0.000000
v -0.563918 -0.338516 0.155678
v -0.050582 -0.655777 -0.155678
v -0.322318 -0.338516 -0.488207
v 0.364714 -0.338516 -0.457406
v 0.578987 -0.174824 0.301728
v 0.645764 0.174824 -0.096214
v -0.108045 -0.174824 0.643885
v 0.291056 0.174824 0.584421
v -0.645764 -0.174824 0.096214
v -0.465879 0.174824 0.457406
v -0.291056 -0.174824 -0.584421
v -0.578987 0.174824 -0.301728
v 0.465879 -0.174824 -0.457406
v 0.108045 0.174824 -0.643885
v 0.322318 0.338516 0.488207
v -0.364714 0.338516 0.457406
v -0.547725 0.338516 -0.205514
v 0.026200 0.338516 -0.584421
v 0.563918 0.338516 -0.155678
v 0.158628 0.439683 0.488207
v 0.163690 0.655777 -0.000000
v -0.415297 0.439683 0.301728
v -0.415297 0.439683 -0.301728
v 0.158628 0.439683 -0.488207
v -0.158628 -0.439683 0.488207
v 0.132429 -0.655777 0.096214
v 0.364714 -0.338516 0.457406
v 0.547725 -0.338516 -0.205514
v 0.132429 -0.655777 -0.096214
v -0.513335 -0.439683 -0.000000
v -0.322318 -0.338516 0.488207
v -0.158628 -0.439683 -0.488207
v -0.563918 -0.338516 -0.155678
v -0.026200 -0.338516 -0.584421
v 0.645764 0.174824 0.096214
v 0.578987 -0.174824 -0.301728
v 0.108045 0.174824 0.643885
v 0.465879 -0.174824 0.457406
v -0.578987 0.174824 0.301728
v -0.291056 -0.174824 0.584421
v -0.465879 0.174824 -0.457406
v -0.645764 -0.174824 -0.096214
v 0.291056 0.174824 -0.584421
v -0.108045 -0.174824 -0.643885
v 0.563918 0.338516 0.155678
v 0.026200 0.338516 0.584421
v -0.547725 0.338516 0.205514
v -0.364714 0.338516 -0.457406
v 0.322318 0.338516 -0.488207
v 0.050582 0.655777 0.155678
v 0.513335 0.439683 -0.000000
v -0.132429 0.655777 0.096214
v -0.132429 0.655777 -0.096214
v 0.050582 0.655777 -0.155678
v 0.243266 0.595155 -0.176742
v 0.423526 0.483748 -0.176742
v 0.298969 0.483748 -0.348178
v -0.092920 0.595155 -0.285975
v -0.037218 0.483748 -0.457411
v -0.238753 0.483748 -0.391928
v -0.300694 0.595155 -0.000000
v -0.446527 0.483748 -0.105953
v -0.446527 0.483748 0.105953
v -0.092920 0.595155 0.285975
v -0.238753 0.483748 0.391928
v -0.037218 0.483748 0.457411
v 0.243266 0.595155 0.176742
v 0.298969 0.483748 0.348178
v 0.423526 0.483748 0.176742
v 0.573873 0.183051 -0.285975
v 0.539446 0.002790 -0.391928
v 0.449316 0.183051 -0.457411
v -0.094644 0.183051 -0.634153
v -0.206050 0.002790 -0.634153
v -0.296180 0.183051 -0.568670
v -0.632366 0.183051 -0.105953
v -0.666793 0.002790 -0.000000
v -0.632366 0.183051 0.105953
v -0.296180 0.183051 0.568670
v -0.206050 0.002790 0.634153
v -0.094644 0.183051 0.634153
v 0.449316 0.183051 0.457411
v 0.539446 0.002790 0.391928
v 0.573873 0.183051 0.285975
v 0.206050 -0.002790 -0.634153
v 0.296180 -0.183051 -0.568670
v 0.094644 -0.183051 -0.634153
v -0.539446 -0.002790 -0.391928
v -0.449316 -0.183051 -0.457411
v -0.573873 -0.183051 -0.285975
v -0.539446 -0.002790 0.391928
v -0.573873 -0.183051 0.285975
v -0.449316 -0.183051 0.457411
v 0.206050 -0.002790 0.634153
v 0.094644 -0.183051 0.634153
v 0.296180 -0.183051 0.568670
v 0.666793 -0.002790 0.000000
v 0.632366 -0.183051 0.105953
v 0.632366 -0.183051 -0.105953
v 0.238753 -0.483748 -0.391928
v 0.092920 -0.595155 -0.285975
v 0.037218 -0.483748 -0.457411
v -0.298969 -0.483748 -0.348178
v -0.243266 -0.595155 -0.176742
v -0.423526 -0.483748 -0.176742
v -0.423526 -0.483748 0.176742
v -0.243266 -0.595155 0.176742
v -0.298969 -0.483748 0.348178
v 0.446527 -0.483748 -0.105953
v 0.446527 -0.483748 0.105953
v 0.300694 -0.595155 0.000000
v 0.037218 -0.483748 0.457411
v 0.092920 -0.595155 0.285975
v 0.238753 -0.483748 0.391928
vn 0.0722 -0.9723 0.2224
vn 0.7159 -0.6040 0.3503
vn -0.1891 -0.9723 0.1374
vn -0.1891 -0.9723 -0.1374
vn 0.0722 -0.9723 -0.2224
vn 0.8604 -0.3702 0.3503
vn -0.0672 -0.3702 0.9265
vn -0.9019 -0.3702 0.2224
vn -0.4902 -0.3702 -0.7891
vn 0.5990 -0.3702 -0.7100
vn 0.7881 -0.2257 0.5726
vn -0.3010 -0.2257 0.9265
vn -0.9742 -0.2257 0.0000
vn -0.3010 -0.2257 -0.9265
vn 0.7881 -0.2257 -0.5726
vn 0.3733 0.6040 0.7042
vn -0.5543 0.6040 0.5726
vn -0.7159 0.6040 -0.3503
vn 0.1119 0.6040 -0.7891
vn 0.7850 0.6040 -0.1374
vn 0.4253 0.8975 -0.1163
vn 0.5170 0.8365 -0.1816
vn 0.5651 0.6179 -0.5466
vn 0.0208 0.8975 -0.4405
vn -0.0130 0.8365 -0.5478
vn -0.3452 0.6179 -0.7064
vn -0.4125 0.8975 -0.1559
vn -0.5250 0.8365 -0.1569
vn -0.7785 0.6179 0.1100
vn -0.2757 0.8975 0.3441
vn -0.3115 0.8365 0.4508
vn -0.1359 0.6179 0.7744
vn 0.2421 0.8975 0.3686
vn 0.3325 0.8365 0.4356
vn 0.6945 0.6179 0.3686
vn 0.9261 0.1548 -0.3441
vn 0.8875 0.0955 -0.4508
vn 0.6135 0.1548 -0.7744
vn -0.0411 0.1548 -0.9871
vn -0.1545 0.0955 -0.9834
vn -0.5469 0.1548 -0.8227
vn -0.9515 0.1548 -0.2659
vn -0.9830 0.0955 -0.1569
vn -0.9515 0.1548 0.2659
vn -0.5469 0.1548 0.8227
vn -0.4530 0.0955 0.8864
vn -0.0411 0.1548 0.9871
vn 0.6135 0.1548 0.7744
vn 0.7030 0.0955 0.7048
vn 0.9261 0.1548 0.3441
vn 0.4533 0.0324 -0.8908
vn 0.4530 -0.0955 -0.8864
vn 0.1737 -0.4200 -0.8908
vn -0.7071 0.0324 -0.7064
vn -0.7030 -0.0955 -0.7048
vn -0.7935 -0.4200 -0.4405
vn -0.8903 0.0324 0.4542
vn -0.8875 -0.0955 0.4508
vn -0.6641 -0.4200 0.6185
vn 0.1568 0.0324 0.9871
vn 0.1545 -0.0955 0.9834
vn 0.3830 -0.4200 0.8227
vn 0.9872 0.0324 0.1559
vn 0.9830 -0.0955 0.1569
vn 0.9008 -0.4200 -0.1100
vn 0.4272 -0.7818 -0.4542
vn 0.3115 -0.8365 -0.4508
vn -0.0786 -0.7818 -0.6185
vn -0.2999 -0.7818 -0.5466
vn -0.3325 -0.8365 -0.4356
vn -0.6126 -0.7818 -0.1163
vn -0.6126 -0.7818 0.1163
vn -0.5170 -0.8365 0.1816
vn -0.2999 -0.7818 0.5466
vn 0.7785 -0.6179 -0.1100
vn 0.7410 -0.6715 0.0000
vn 0.4125 -0.8975 0.1559
vn -0.0786 -0.7818 0.6185
vn 0.0130 -0.8365 0.5478
vn 0.4272 -0.7818 0.4542
vn 0.3452 -0.6179 0.7064
vn 0.4645 -0.6660 0.5837
vn 0.5543 -0.6040 0.5726
vn 0.2290 -0.6715 0.7048
vn 0.1876 -0.7947 0.5774
vn 0.3115 -0.8365 0.4508
vn -0.1119 -0.6040 0.7891
vn -0.0327 -0.6660 0.7452
vn 0.1359 -0.6179 0.7744
vn 0.4125 -0.8975 -0.1559
vn 0.3389 -0.9408 0.0000
vn 0.2338 -0.9723 0.0000
vn 0.5250 -0.8365 -0.1569
vn 0.6071 -0.7947 0.0000
vn 0.5250 -0.8365 0.1569
vn 0.7159 -0.6040 -0.3503
vn 0.6987 -0.6660 -0.2614
vn 0.5640 -0.7818 -0.2659
vn -0.5651 -0.6179 0.5466
vn -0.4116 -0.6660 0.6221
vn -0.3733 -0.6040 0.7042
vn -0.5995 -0.6715 0.4356
vn -0.4911 -0.7947 0.3568
vn -0.3325 -0.8365 0.4356
vn -0.7850 -0.6040 0.1374
vn -0.7189 -0.6660 0.1992
vn -0.6945 -0.6179 0.3686
vn -0.6945 -0.6179 -0.3686
vn -0.7189 -0.6660 -0.1992
vn -0.7850 -0.6040 -0.1374
vn -0.5995 -0.6715 -0.4356
vn -0.4911 -0.7947 -0.3568
vn -0.5170 -0.8365 -0.1816
vn -0.3733 -0.6040 -0.7042
vn -0.4116 -0.6660 -0.6221
vn -0.5651 -0.6179 -0.5466
vn 0.1359 -0.6179 -0.7744
vn -0.0327 -0.6660 -0.7452
vn -0.1119 -0.6040 -0.7891
vn 0.2290 -0.6715 -0.7048
vn 0.1876 -0.7947 -0.5774
vn 0.0130 -0.8365 -0.5478
vn 0.5543 -0.6040 -0.5726
vn 0.4645 -0.6660 -0.5837
vn 0.3452 -0.6179 -0.7064
vn 0.9515 -0.1548 -0.2659
vn 0.9081 -0.3271 -0.2614
vn 0.8604 -0.3702 -0.3503
vn 0.9830 -0.0955 -0.1569
vn 0.9822 -0.1876 0.0000
vn 0.9320 -0.3625 0.0000
vn 0.9742 0.2257 0.0000
vn 0.9931 0.1176 0.0000
vn 0.9872 0.0324 -0.1559
vn 0.5469 -0.1548 0.8227
vn 0.5292 -0.3271 0.7829
vn 0.5990 -0.3702 0.7100
vn 0.4530 -0.0955 0.8864
vn 0.3035 -0.1876 0.9342
vn 0.2880 -0.3625 0.8864
vn 0.3010 0.2257 0.9265
vn 0.3069 0.1176 0.9445
vn 0.4533 0.0324 0.8908
vn -0.6135 -0.1548 0.7744
vn -0.5811 -0.3271 0.7452
vn -0.4902 -0.3702 0.7891
vn -0.7030 -0.0955 0.7048
vn -0.7947 -0.1876 0.5774
vn -0.7540 -0.3625 0.5478
vn -0.7881 0.2257 0.5726
vn -0.8034 0.1176 0.5837
vn -0.7071 0.0324 0.7064
vn -0.9261 -0.1548 -0.3441
vn -0.8883 -0.3271 -0.3224
vn -0.9019 -0.3702 -0.2224
vn -0.8875 -0.0955 -0.4508
vn -0.7947 -0.1876 -0.5774
vn -0.7540 -0.3625 -0.5478
vn -0.7881 0.2257 -0.5726
vn -0.8034 0.1176 -0.5837
vn -0.8903 0.0324 -0.4542
vn 0.0411 -0.1548 -0.9871
vn 0.0321 -0.3271 -0.9445
vn -0.0672 -0.3702 -0.9265
vn 0.1545 -0.0955 -0.9834
vn 0.3035 -0.1876 -0.9342
vn 0.2880 -0.3625 -0.8864
vn 0.3010 0.2257 -0.9265
vn 0.3069 0.1176 -0.9445
vn 0.1568 0.0324 -0.9871
vn 0.7935 0.4200 0.4405
vn 0.8883 0.3271 0.3224
vn 0.9019 0.3702 0.2224
vn 0.7540 0.3625 0.5478
vn 0.7947 0.1876 0.5774
vn 0.8875 0.0955 0.4508
vn 0.4902 0.3702 0.7891
vn 0.5811 0.3271 0.7452
vn 0.6641 0.4200 0.6185
vn -0.1737 0.4200 0.8908
vn -0.0321 0.3271 0.9445
vn 0.0672 0.3702 0.9265
vn -0.2880 0.3625 0.8864
vn -0.3035 0.1876 0.9342
vn -0.1545 0.0955 0.9834
vn -0.5990 0.3702 0.7100
vn -0.5292 0.3271 0.7829
vn -0.3830 0.4200 0.8227
vn -0.9008 0.4200 0.1100
vn -0.9081 0.3271 0.2614
vn -0.8604 0.3702 0.3503
vn -0.9320 0.3625 -0.0000
vn -0.9822 0.1876 -0.0000
vn -0.9830 0.0955 0.1569
vn -0.8604 0.3702 -0.3503
vn -0.9081 0.3271 -0.2614
vn -0.9008 0.4200 -0.1100
vn -0.3830 0.4200 -0.8227
vn -0.5292 0.3271 -0.7829
vn -0.5990 0.3702 -0.7100
vn -0.2880 0.3625 -0.8864
vn -0.3035 0.1876 -0.9342
vn -0.4530 0.0955 -0.8864
vn 0.0672 0.3702 -0.9265
vn -0.0321 0.3271 -0.9445
vn -0.1737 0.4200 -0.8908
vn 0.6641 0.4200 -0.6185
vn 0.5811 0.3271 -0.7452
vn 0.4902 0.3702 -0.7891
vn 0.7540 0.3625 -0.5478
vn 0.7947 0.1876 -0.5774
vn 0.7030 0.0955 -0.7048
vn 0.9019 0.3702 -0.2224
vn 0.8883 0.3271 -0.3224
vn 0.7935 0.4200 -0.4405
vn 0.6126 0.7818 0.1163
vn 0.7189 0.6660 0.1992
vn 0.7850 0.6040 0.1374
vn 0.5170 0.8365 0.1816
vn 0.4911 0.7947 0.3568
vn 0.5995 0.6715 0.4356
vn 0.1892 0.9723 0.1374
vn 0.2742 0.9408 0.1992
vn 0.4253 0.8975 0.1163
vn 0.0786 0.7818 0.6185
vn 0.0327 0.6660 0.7452
vn 0.1119 0.6040 0.7891
vn -0.0130 0.8365 0.5478
vn -0.1876 0.7947 0.5774
vn -0.2290 0.6715 0.7048
vn -0.0722 0.9723 0.2224
vn -0.1047 0.9408 0.3224
vn 0.0208 0.8975 0.4405
vn -0.5639 0.7818 0.2659
vn -0.6987 0.6660 0.2614
vn -0.7159 0.6040 0.3503
vn -0.5250 0.8365 0.1569
vn -0.6071 0.7947 0.0000
vn -0.7410 0.6715 0.0000
vn -0.2338 0.9723 0.0000
vn -0.3389 0.9408 0.0000
vn -0.4125 0.8975 0.1559
vn -0.4272 0.7818 -0.4542
vn -0.4645 0.6660 -0.5837
vn -0.5543 0.6040 -0.5726
vn -0.3115 0.8365 -0.4508
vn -0.1876 0.7947 -0.5774
vn -0.2290 0.6715 -0.7048
vn -0.0722 0.9723 -0.2224
vn -0.1047 0.9408 -0.3224
vn -0.2757 0.8975 -0.3441
vn 0.2999 0.7818 -0.5466
vn 0.4116 0.6660 -0.6221
vn 0.3733 0.6040 -0.7042
vn 0.3325 0.8365 -0.4356
vn 0.4911 0.7947 -0.3568
vn 0.5995 0.6715 -0.4356
vn 0.1892 0.9723 -0.1374
vn 0.2742 0.9408 -0.1992
vn 0.2421 0.8975 -0.3686
vn 0.6126 0.7818 -0.1163
vn 0.7189 0.6660 -0.1992
vn 0.6945 0.6179 -0.3686
vn 0.0786 0.7818 -0.6185
vn 0.0327 0.6660 -0.7452
vn -0.1359 0.6179 -0.7744
vn -0.5639 0.7818 -0.2659
vn -0.6987 0.6660 -0.2614
vn -0.7785 0.6179 -0.1100
vn -0.4272 0.7818 0.4542
vn -0.4645 0.6660 0.5837
vn -0.3452 0.6179 0.7064
vn 0.2999 0.7818 0.5466
vn 0.4116 0.6660 0.6221
vn 0.5651 0.6179 0.5466
vn 0.8903 -0.0324 -0.4542
vn 0.8034 -0.1176 -0.5837
vn 0.7071 -0.0324 -0.7064
vn -0.1568 -0.0324 -0.9871
vn -0.3069 -0.1176 -0.9445
vn -0.4533 -0.0324 -0.8908
vn -0.9872 -0.0324 -0.1559
vn -0.9931 -0.1176 0.0000
vn -0.9872 -0.0324 0.1559
vn -0.4533 -0.0324 0.8908
vn -0.3069 -0.1176 0.9445
vn -0.1568 -0.0324 0.9871
vn 0.7071 -0.0324 0.7064
vn 0.8034 -0.1176 0.5837
vn 0.8903 -0.0324 0.4542
vn 0.5469 -0.1548 -0.8227
vn 0.5292 -0.3271 -0.7829
vn 0.3830 -0.4200 -0.8227
vn -0.6135 -0.1548 -0.7744
vn -0.5811 -0.3271 -0.7452
vn -0.6641 -0.4200 -0.6185
vn -0.9261 -0.1548 0.3441
vn -0.8883 -0.3271 0.3224
vn -0.7935 -0.4200 0.4405
vn 0.0411 -0.1548 0.9871
vn 0.0321 -0.3271 0.9445
vn 0.1737 -0.4200 0.8908
vn 0.9515 -0.1548 0.2659
vn 0.9081 -0.3271 0.2614
vn 0.9008 -0.4200 0.1100
vn 0.2757 -0.8975 -0.3441
vn 0.1047 -0.9408 -0.3224
vn -0.0208 -0.8975 -0.4405
vn -0.2421 -0.8975 -0.3686
vn -0.2742 -0.9408 -0.1992
vn -0.4253 -0.8975 -0.1163
vn -0.4253 -0.8975 0.1163
vn -0.2742 -0.9408 0.1992
vn -0.2421 -0.8975 0.3686
vn 0.7785 -0.6179 0.1100
vn 0.6987 -0.6660 0.2614
vn 0.5640 -0.7818 0.2659
vn -0.0208 -0.8975 0.4405
vn 0.1047 -0.9408 0.3224
vn 0.2757 -0.8975 0.3441
usemtl None
s off
f 1//1 74//1 43//1
f 2//2 44//2 46//2
f 1//3 43//3 48//3
f 1//4 48//4 50//4
f 1//5 50//5 77//5
f 2//6 46//6 53//6
f 3//7 45//7 55//7
f 4//8 49//8 57//8
f 5//9 51//9 59//9
f 6//10 52//10 61//10
f 2//11 53//11 86//11
f 3//12 55//12 88//12
f 4//13 57//13 90//13
f 5//14 59//14 92//14
f 6//15 61//15 84//15
f 7//16 63//16 68//16
f 8//17 64//17 70//17
f 9//18 65//18 71//18
f 10//19 66//19 72//19
f 11//20 67//20 99//20
f 39//21 103//21 69//21
f 39//22 104//22 103//22
f 37//23 97//23 105//23
f 42//24 106//24 102//24
f 42//25 107//25 106//25
f 36//26 96//26 108//26
f 41//27 109//27 101//27
f 41//28 110//28 109//28
f 35//29 95//29 111//29
f 40//30 112//30 100//30
f 40//31 113//31 112//31
f 34//32 94//32 114//32
f 38//33 115//33 98//33
f 38//34 116//34 115//34
f 33//35 93//35 117//35
f 24//36 118//36 54//36
f 24//37 119//37 118//37
f 31//38 91//38 120//38
f 32//39 121//39 62//39
f 32//40 122//40 121//40
f 29//41 89//41 123//41
f 30//42 124//42 60//42
f 30//43 125//43 124//43
f 27//44 87//44 126//44
f 28//45 127//45 58//45
f 28//46 128//46 127//46
f 25//47 85//47 129//47
f 26//48 130//48 56//48
f 26//49 131//49 130//49
f 23//50 83//50 132//50
f 31//51 133//51 91//51
f 31//52 134//52 133//52
f 22//53 82//53 135//53
f 29//54 136//54 89//54
f 29//55 137//55 136//55
f 21//56 81//56 138//56
f 27//57 139//57 87//57
f 27//58 140//58 139//58
f 19//59 79//59 141//59
f 25//60 142//60 85//60
f 25//61 143//61 142//61
f 15//62 75//62 144//62
f 23//63 145//63 83//63
f 23//64 146//64 145//64
f 16//65 76//65 147//65
f 17//66 148//66 47//66
f 17//67 149//67 148//67
f 20//68 80//68 150//68
f 20//69 151//69 80//69
f 20//70 152//70 151//70
f 18//71 78//71 153//71
f 18//72 154//72 78//72
f 18//73 155//73 154//73
f 13//74 73//74 156//74
f 16//75 157//75 76//75
f 16//76 158//76 157//76
f 14//77 74//77 159//77
f 13//78 160//78 73//78
f 13//79 161//79 160//79
f 14//80 44//80 162//80
f 162//81 75//81 15//81
f 162//82 44//82 75//82
f 44//83 2//83 75//83
f 160//84 162//84 15//84
f 160//85 161//85 162//85
f 161//86 14//86 162//86
f 73//87 45//87 3//87
f 73//88 160//88 45//88
f 160//89 15//89 45//89
f 159//90 77//90 17//90
f 159//91 74//91 77//91
f 74//92 1//92 77//92
f 157//93 159//93 17//93
f 157//94 158//94 159//94
f 158//95 14//95 159//95
f 76//96 47//96 6//96
f 76//97 157//97 47//97
f 157//98 17//98 47//98
f 156//99 79//99 19//99
f 156//100 73//100 79//100
f 73//101 3//101 79//101
f 154//102 156//102 19//102
f 154//103 155//103 156//103
f 155//104 13//104 156//104
f 78//105 49//105 4//105
f 78//106 154//106 49//106
f 154//107 19//107 49//107
f 153//108 81//108 21//108
f 153//109 78//109 81//109
f 78//110 4//110 81//110
f 151//111 153//111 21//111
f 151//112 152//112 153//112
f 152//113 18//113 153//113
f 80//114 51//114 5//114
f 80//115 151//115 51//115
f 151//116 21//116 51//116
f 150//117 82//117 22//117
f 150//118 80//118 82//118
f 80//119 5//119 82//119
f 148//120 150//120 22//120
f 148//121 149//121 150//121
f 149//122 20//122 150//122
f 47//123 52//123 6//123
f 47//124 148//124 52//124
f 148//125 22//125 52//125
f 147//126 84//126 24//126
f 147//127 76//127 84//127
f 76//128 6//128 84//128
f 145//129 147//129 24//129
f 145//130 146//130 147//130
f 146//131 16//131 147//131
f 83//132 54//132 11//132
f 83//133 145//133 54//133
f 145//134 24//134 54//134
f 144//135 86//135 26//135
f 144//136 75//136 86//136
f 75//137 2//137 86//137
f 142//138 144//138 26//138
f 142//139 143//139 144//139
f 143//140 15//140 144//140
f 85//141 56//141 7//141
f 85//142 142//142 56//142
f 142//143 26//143 56//143
f 141//144 88//144 28//144
f 141//145 79//145 88//145
f 79//146 3//146 88//146
f 139//147 141//147 28//147
f 139//148 140//148 141//148
f 140//149 19//149 141//149
f 87//150 58//150 8//150
f 87//151 139//151 58//151
f 139//152 28//152 58//152
f 138//153 90//153 30//153
f 138//154 81//154 90//154
f 81//155 4//155 90//155
f 136//156 138//156 30//156
f 136//157 137//157 138//157
f 137//158 21//158 138//158
f 89//159 60//159 9//159
f 89//160 136//160 60//160
f 136//161 30//161 60//161
f 135//162 92//162 32//162
f 135//163 82//163 92//163
f 82//164 5//164 92//164
f 133//165 135//165 32//165
f 133//166 134//166 135//166
f 134//167 22//167 135//167
f 91//168 62//168 10//168
f 91//169 133//169 62//169
f 133//170 32//170 62//170
f 132//171 93//171 33//171
f 132//172 83//172 93//172
f 83//173 11//173 93//173
f 130//174 132//174 33//174
f 130//175 131//175 132//175
f 131//176 23//176 132//176
f 56//177 63//177 7//177
f 56//178 130//178 63//178
f 130//179 33//179 63//179
f 129//180 94//180 34//180
f 129//181 85//181 94//181
f 85//182 7//182 94//182
f 127//183 129//183 34//183
f 127//184 128//184 129//184
f 128//185 25//185 129//185
f 58//186 64//186 8//186
f 58//187 127//187 64//187
f 127//188 34//188 64//188
f 126//189 95//189 35//189
f 126//190 87//190 95//190
f 87//191 8//191 95//191
f 124//192 126//192 35//192
f 124//193 125//193 126//193
f 125//194 27//194 126//194
f 60//195 65//195 9//195
f 60//196 124//196 65//196
f 124//197 35//197 65//197
f 123//198 96//198 36//198
f 123//199 89//199 96//199
f 89//200 9//200 96//200
f 121//201 123//201 36//201
f 121//202 122//202 123//202
f 122//203 29//203 123//203
f 62//204 66//204 10//204
f 62//205 121//205 66//205
f 121//206 36//206 66//206
f 120//207 97//207 37//207
f 120//208 91//208 97//208
f 91//209 10//209 97//209
f 118//210 120//210 37//210
f 118//211 119//211 120//211
f 119//212 31//212 120//212
f 54//213 67//213 11//213
f 54//214 118//214 67//214
f 118//215 37//215 67//215
f 117//216 99//216 39//216
f 117//217 93//217 99//217
f 93//218 11//218 99//218
f 115//219 117//219 39//219
f 115//220 116//220 117//220
f 116//221 33//221 117//221
f 98//222 69//222 12//222
f 98//223 115//223 69//223
f 115//224 39//224 69//224
f 114//225 68//225 38//225
f 114//226 94//226 68//226
f 94//227 7//227 68//227
f 112//228 114//228 38//228
f 112//229 113//229 114//229
f 113//230 34//230 114//230
f 100//231 98//231 12//231
f 100//232 112//232 98//232
f 112//233 38//233 98//233
f 111//234 70//234 40//234
f 111//235 95//235 70//235
f 95//236 8//236 70//236
f 109//237 111//237 40//237
f 109//238 110//238 111//238
f 110//239 35//239 111//239
f 101//240 100//240 12//240
f 101//241 109//241 100//241
f 109//242 40//242 100//242
f 108//243 71//243 41//243
f 108//244 96//244 71//244
f 96//245 9//245 71//245
f 106//246 108//246 41//246
f 106//247 107//247 108//247
f 107//248 36//248 108//248
f 102//249 101//249 12//249
f 102//250 106//250 101//250
f 106//251 41//251 101//251
f 105//252 72//252 42//252
f 105//253 97//253 72//253
f 97//254 10//254 72//254
f 103//255 105//255 42//255
f 103//256 104//256 105//256
f 104//257 37//257 105//257
f 69//258 102//258 12//258
f 69//259 103//259 102//259
f 103//260 42//260 102//260
f 99//261 104//261 39//261
f 99//262 67//262 104//262
f 67//263 37//263 104//263
f 72//264 107//264 42//264
f 72//265 66//265 107//265
f 66//266 36//266 107//266
f 71//267 110//267 41//267
f 71//268 65//268 110//268
f 65//269 35//269 110//269
f 70//270 113//270 40//270
f 70//271 64//271 113//271
f 64//272 34//272 113//272
f 68//273 116//273 38//273
f 68//274 63//274 116//274
f 63//275 33//275 116//275
f 84//276 119//276 24//276
f 84//277 61//277 119//277
f 61//278 31//278 119//278
f 92//279 122//279 32//279
f 92//280 59//280 122//280
f 59//281 29//281 122//281
f 90//282 125//282 30//282
f 90//283 57//283 125//283
f 57//284 27//284 125//284
f 88//285 128//285 28//285
f 88//286 55//286 128//286
f 55//287 25//287 128//287
f 86//288 131//288 26//288
f 86//289 53//289 131//289
f 53//290 23//290 131//290
f 61//291 134//291 31//291
f 61//292 52//292 134//292
f 52//293 22//293 134//293
f 59//294 137//294 29//294
f 59//295 51//295 137//295
f 51//296 21//296 137//296
f 57//297 140//297 27//297
f 57//298 49//298 140//298
f 49//299 19//299 140//299
f 55//300 143//300 25//300
f 55//301 45//301 143//301
f 45//302 15//302 143//302
f 53//303 146//303 23//303
f 53//304 46//304 146//304
f 46//305 16//305 146//305
f 77//306 149//306 17//306
f 77//307 50//307 149//307
f 50//308 20//308 149//308
f 50//309 152//309 20//309
f 50//310 48//310 152//310
f 48//311 18//311 152//311
f 48//312 155//312 18//312
f 48//313 43//313 155//313
f 43//314 13//314 155//314
f 46//315 158//315 16//315
f 46//316 44//316 158//316
f 44//317 14//317 158//317
f 43//318 161//318 13//318
f 43//319 74//319 161//319
f 74//320 14//320 161//320
